HIERARCHY
ROOT root
{
	OFFSET	0	13.1	24.9
	CHANNELS 6  Xposition Yposition Zposition Xrotation Yrotation Zrotation
	JOINT spine_1
	{
		OFFSET	0	9.99999	0
		CHANNELS 3  Xrotation Yrotation Zrotation
		JOINT spine_2
		{
			OFFSET	0	112	-10
			CHANNELS 3  Xrotation Yrotation Zrotation
			JOINT spine_3
			{
				OFFSET	0	206.5	19.3
				CHANNELS 3  Xrotation Yrotation Zrotation
				JOINT spine_4
				{
					OFFSET	0	110.4	14.6
					CHANNELS 3  Xrotation Yrotation Zrotation
					JOINT neck_1
					{
						OFFSET	0	71.8	-50.3
						CHANNELS 3  Xrotation Yrotation Zrotation
						JOINT neck_2
						{
							OFFSET	0	86.2	-25.8
							CHANNELS 3  Xrotation Yrotation Zrotation
							JOINT head_ee
							{
								OFFSET	0	179.8	-8.7
								CHANNELS 3  Xrotation Yrotation Zrotation
								End Site
								{
									OFFSET	1	0	0
								}
							}
						}
					}
					JOINT left_clavicle
					{
						OFFSET	-43.2	22.4	-70.8
						CHANNELS 3  Xrotation Yrotation Zrotation
						JOINT left_shoulder
						{
							OFFSET	-93.9	-5.79999	48.7
							CHANNELS 3  Xrotation Yrotation Zrotation
							JOINT left_elbow
							{
								OFFSET	-291.4	-30.8	15.2
								CHANNELS 3  Xrotation Yrotation Zrotation
								JOINT left_lowarm_twist
								{
									OFFSET	-110.7	-3.89999	13.6
									CHANNELS 3  Xrotation Yrotation Zrotation
									JOINT left_hand
									{
										OFFSET	-110.7	-3.89999	13.6
										CHANNELS 3  Xrotation Yrotation Zrotation
										JOINT left_ee
										{
											OFFSET	-80.8	-5.10001	12.1
											CHANNELS 3  Xrotation Yrotation Zrotation
											End Site
											{
												OFFSET	1	0	0
											}
										}
									}
								}
							}
						}
					}
					JOINT right_clavicle
					{
						OFFSET	43.2	22.4	-70.8
						CHANNELS 3  Xrotation Yrotation Zrotation
						JOINT right_shoulder
						{
							OFFSET	93.9	-5.79999	48.7
							CHANNELS 3  Xrotation Yrotation Zrotation
							JOINT right_elbow
							{
								OFFSET	291.4	-30.8	15.2
								CHANNELS 3  Xrotation Yrotation Zrotation
								JOINT right_lowarm_twist
								{
									OFFSET	110.7	-3.89999	13.6
									CHANNELS 3  Xrotation Yrotation Zrotation
									JOINT right_hand
									{
										OFFSET	110.7	-3.89999	13.6
										CHANNELS 3  Xrotation Yrotation Zrotation
										JOINT right_ee
										{
											OFFSET	80.8	-5.10001	12.1
											CHANNELS 3  Xrotation Yrotation Zrotation
											End Site
											{
												OFFSET	1	0	0
											}
										}
									}
								}
							}
						}
					}
				}
			}
		}
	}
	JOINT left_hip
	{
		OFFSET	-82.8	-127.5	0.300001
		CHANNELS 3  Xrotation Yrotation Zrotation
		JOINT left_knee
		{
			OFFSET	-28.2	-396.7	2.2
			CHANNELS 3  Xrotation Yrotation Zrotation
			JOINT left_ankle
			{
				OFFSET	-11.7	-411.3	35.4
				CHANNELS 3  Xrotation Yrotation Zrotation
				JOINT left_toes
				{
					OFFSET	0	-60	-88.6
					CHANNELS 3  Xrotation Yrotation Zrotation
					JOINT left_foot_ee
					{
						OFFSET	-22.5	-16.5	-42.2
						CHANNELS 3  Xrotation Yrotation Zrotation
						End Site
						{
							OFFSET	1	0	0
						}
					}
				}
			}
		}
	}
	JOINT right_hip
	{
		OFFSET	82.8	-127.5	0.300001
		CHANNELS 3  Xrotation Yrotation Zrotation
		JOINT right_knee
		{
			OFFSET	28.2	-396.7	2.2
			CHANNELS 3  Xrotation Yrotation Zrotation
			JOINT right_ankle
			{
				OFFSET	11.7	-411.3	35.4
				CHANNELS 3  Xrotation Yrotation Zrotation
				JOINT right_toes
				{
					OFFSET	0	-60	-88.6
					CHANNELS 3  Xrotation Yrotation Zrotation
					JOINT right_foot_ee
					{
						OFFSET	22.5	-16.5	-42.2
						CHANNELS 3  Xrotation Yrotation Zrotation
						End Site
						{
							OFFSET	1	0	0
						}
					}
				}
			}
		}
	}
}
MOTION
Frames: 11
Frame Time: 0.02
3416.92 747.428 -826.448 -25.4921 55.1655 23.6155 6.23763 -0.527795 -0.405266 6.23759 -0.500937 -0.438029 6.24143 -0.453349 -0.487117 6.24149 -0.52459 -0.409406 -17.1587 13.4914 -1.59909 -18.0263 26.7896 3.75901 -0.0 0.0 -0.0 6.98427 6.10084 13.4834 -42.9345 -24.7893 52.4706 0.62059 -17.0887 0.0932399 21.6961 0.247593 -2.7439 0.976562 7.48217 9.50165 -0.0 0.0 -0.0 7.23537 3.54339 -14.0471 -31.006 13.1404 -54.6745 1.93216 43.7407 -0.775624 13.8903 -0.278714 1.74814 -0.00922316 0.572114 0.30298 0.0 0.0 0.0 20.8222 -10.0506 1.96578 -28.8933 0.0848599 4.38651 30.5255 10.9017 -3.9579 -16.0298 0.0 0.0 -0.0 0.0 -0.0 17.0984 5.11196 4.54648 -19.2289 -0.304017 -2.92134 15.7398 -29.4075 2.35957 8.12809 -0.0 -0.0 0.0 0.0 0.0 
3404.22 749.917 -828.593 -25.6195 56.9469 24.1641 6.12093 -0.591076 -0.425206 6.12085 -0.562821 -0.461956 6.12543 -0.511406 -0.5183 6.12554 -0.586843 -0.431028 -16.7964 13.2217 -0.159 -17.5475 25.4665 4.87555 -0.0 0.0 -0.0 7.23922 5.15989 13.988 -43.051 -28.0806 50.6559 0.6739 -18.4606 0.109515 22.1778 0.241232 -2.8051 0.915859 8.45382 9.47483 -0.0 0.0 -0.0 7.24308 1.74721 -14.0757 -31.0664 12.297 -55.1518 1.7884 41.5346 -0.678229 13.3968 -0.276119 1.68517 0.00802529 1.48467 0.573106 0.0 0.0 0.0 18.1062 -10.0034 1.79503 -25.3708 0.193364 3.85687 31.0436 9.17662 -4.00463 -16.2914 0.0 0.0 -0.0 0.0 -0.0 20.9439 5.91024 4.74494 -22.8835 -0.25026 -3.47945 17.9124 -28.5261 2.64771 10.4412 -0.0 -0.0 0.0 0.0 0.0 
3392.19 750.744 -836.402 -26.5167 59.0279 25.7655 5.98465 -0.605133 -0.489976 5.9846 -0.572728 -0.527489 5.98989 -0.513023 -0.585722 5.9899 -0.599087 -0.49735 -17.0214 13.2644 1.09288 -17.745 24.8655 6.09921 -0.0 0.0 -0.0 7.11604 4.58574 13.7678 -43.1119 -29.9232 48.9593 0.742496 -20.1941 0.132221 21.6198 0.248553 -2.7342 0.832911 8.02252 8.76505 -0.0 0.0 -0.0 6.93835 0.628125 -13.4685 -31.5588 11.3815 -56.2937 1.62755 38.8741 -0.574368 13.1772 -0.274789 1.65715 0.0582787 1.84961 0.390453 0.0 0.0 0.0 16.6702 -11.5447 1.31758 -25.8089 0.181647 3.92308 30.4143 9.85255 -3.94063 -16.3826 0.0 0.0 -0.0 0.0 -0.0 25.9997 6.08173 3.47988 -29.8701 -0.0490188 -4.53213 16.2845 -30.8506 2.46217 11.008 -0.0 -0.0 0.0 0.0 0.0 
3381.81 751.883 -837.577 -27.53 59.7013 27.0093 6.02937 -0.576694 -0.499896 6.02934 -0.543717 -0.535579 6.03441 -0.48377 -0.590287 6.03438 -0.570922 -0.506479 -16.8195 12.8193 0.954365 -17.4808 24.0759 5.73719 -0.0 0.0 -0.0 7.25872 3.70743 14.0595 -43.1422 -31.5315 47.2151 0.759503 -20.618 0.13815 21.6338 0.248377 -2.73599 0.868903 7.39289 8.75814 -0.0 0.0 -0.0 6.73067 0.379973 -13.0567 -32.0141 10.6454 -57.0593 1.52433 37.0542 -0.510863 12.5046 -0.270051 1.57137 0.191161 2.2535 -0.330716 0.0 0.0 0.0 15.0443 -12.3051 1.26212 -23.0312 0.247339 3.50193 30.8235 10.0489 -3.98511 -16.5566 0.0 0.0 -0.0 0.0 -0.0 28.9857 6.71581 3.70359 -35.1914 0.189521 -5.3135 14.3836 -28.5142 2.1534 12.0158 -0.0 -0.0 0.0 0.0 0.0 
3372.13 753.848 -840.862 -28.4787 61.1 27.9739 6.05072 -0.662245 -0.530134 6.05065 -0.627169 -0.5712 6.05692 -0.563224 -0.634342 6.05696 -0.656337 -0.537431 -16.2272 13.1303 2.59469 -16.8058 23.7082 7.23178 -0.0 0.0 -0.0 7.21224 3.11314 13.9811 -42.7809 -32.8138 45.7336 0.826118 -22.2559 0.162499 21.4741 0.250351 -2.71568 0.873327 7.29472 8.74924 -0.0 0.0 -0.0 6.55767 -0.641922 -12.7203 -32.701 10.1142 -57.6406 1.43735 35.4496 -0.459425 12.4022 -0.26924 1.55831 0.13347 2.4269 0.12967 0.0 0.0 0.0 14.3969 -13.2799 0.857778 -22.7244 0.253342 3.45522 31.1434 9.70096 -4.01734 -16.5043 0.0 0.0 -0.0 0.0 -0.0 31.465 6.80671 3.94195 -35.4143 0.201092 -5.34573 16.3145 -31.1128 2.47136 12.7208 -0.0 -0.0 0.0 0.0 0.0 
3360.11 752.216 -844.321 -29.3036 62.0871 28.8377 5.86283 -0.644345 -0.594029 5.86282 -0.605241 -0.633826 5.86947 -0.532521 -0.69604 5.86936 -0.635763 -0.603206 -17.4944 12.735 3.31919 -18.0803 22.6617 8.02473 -0.0 0.0 -0.0 7.20079 2.59451 13.9671 -41.9503 -33.8016 44.8789 0.891069 -23.8168 0.187918 21.5557 0.249349 -2.72606 0.773644 6.86017 7.92399 -0.0 0.0 -0.0 6.39106 -1.34221 -12.3975 -33.2049 9.64636 -57.8848 1.36748 34.1123 -0.419564 12.1082 -0.266786 1.52084 0.161513 2.51444 -0.021683 0.0 0.0 0.0 13.4919 -13.7563 0.552319 -21.6021 0.273161 3.28415 31.7458 8.82786 -4.07693 -16.5377 0.0 0.0 -0.0 0.0 -0.0 33.86 7.2967 4.853 -35.9974 0.231953 -5.42983 15.3239 -30.3885 2.31686 12.9369 -0.0 -0.0 0.0 0.0 0.0 
3353.58 751.092 -840.26 -29.9868 62.1482 29.5786 5.82995 -0.512956 -0.793275 5.83018 -0.461441 -0.824305 5.83652 -0.368304 -0.869917 5.83581 -0.501064 -0.800839 -16.7735 12.7038 3.58025 -17.2945 22.3873 8.08908 -0.0 0.0 -0.0 7.4616 2.23513 14.4814 -40.7766 -34.7419 44.3189 0.961598 -25.4702 0.21733 21.5912 0.24891 -2.73056 0.66396 6.09359 6.90008 -0.0 0.0 -0.0 6.29311 -1.60752 -12.2082 -33.515 9.38275 -57.8188 1.27092 32.1921 -0.366751 11.9106 -0.265027 1.49566 0.165554 2.08973 -0.227854 0.0 0.0 0.0 13.1175 -14.0549 1.05169 -20.5975 0.288057 3.13072 32.3883 7.44341 -4.1395 -16.5724 0.0 0.0 -0.0 0.0 -0.0 35.9498 7.9969 5.62689 -34.1185 0.135588 -5.15775 14.4858 -28.214 2.16363 12.7963 -0.0 -0.0 0.0 0.0 0.0 
3340.95 747.474 -838.077 -31.5715 62.5345 30.5315 5.8138 -0.310274 -0.803066 5.81412 -0.258546 -0.82118 5.81745 -0.16667 -0.844631 5.81658 -0.297967 -0.807713 -17.373 11.5568 3.25563 -17.8308 20.4189 7.45251 -0.0 0.0 -0.0 8.22035 1.07815 16.0049 -39.1745 -35.0686 43.3489 0.99714 -26.2867 0.232843 21.6949 0.247608 -2.74375 0.309155 4.90792 4.08713 -0.0 0.0 -0.0 6.00848 -1.98703 -11.6597 -34.0869 8.81569 -57.7713 1.17998 30.3064 -0.319569 12.2479 -0.267976 1.53865 0.312328 1.83802 -1.31831 0.0 0.0 0.0 12.8206 -13.9157 2.2806 -19.6356 0.299796 2.98361 34.1675 5.68893 -4.31689 -17.1142 0.0 0.0 -0.0 0.0 -0.0 39.1677 10.7415 2.80304 -32.1056 0.0423286 -4.86301 11.7935 -29.0648 1.78753 12.9957 -0.0 -0.0 0.0 0.0 0.0 
3329.17 745.079 -837.39 -31.6409 62.8053 30.7356 5.65277 -0.233055 -0.933167 5.65324 -0.173206 -0.946104 5.6556 -0.0653885 -0.959602 5.65438 -0.216112 -0.937235 -18.6595 10.3276 2.24102 -19.1054 18.6962 6.2549 -0.0 0.0 -0.0 8.79546 0.403542 17.1787 -35.2169 -32.2267 44.6416 1.05954 -27.6927 0.261163 22.068 0.242726 -2.79116 -0.250092 0.691613 -1.37578 -0.0 0.0 -0.0 5.75905 -2.67863 -11.1871 -34.8102 9.30821 -57.0857 1.11779 28.9732 -0.288809 12.4904 -0.26994 1.56956 0.836195 4.13292 -3.88282 0.0 0.0 0.0 11.1403 -14.1575 2.77723 -17.114 0.318832 2.5972 35.5325 4.92674 -4.45006 -17.9128 0.0 0.0 -0.0 0.0 -0.0 42.0202 15.5455 0.383966 -32.9914 0.0820877 -4.9931 4.43911 -29.0098 0.686872 11.6732 -0.0 -0.0 0.0 0.0 0.0 
3323.34 739.476 -837.75 -31.9487 61.3606 30.6761 5.45128 -0.105851 -1.07477 5.45193 -0.0372503 -1.07932 5.452 0.0885748 -1.07633 5.45039 -0.0825124 -1.07681 -18.6213 10.2783 3.0754 -19.0235 18.1584 6.99245 -0.0 0.0 -0.0 9.08286 0.499043 17.7571 -35.9592 -35.2347 41.7881 1.0612 -27.7297 0.261937 21.9241 0.244646 -2.77288 -0.172582 1.56175 -0.490512 -0.0 0.0 -0.0 5.62698 -2.69252 -10.9346 -34.6908 9.08125 -56.883 1.10967 28.7967 -0.284889 12.6481 -0.271146 1.58967 0.588238 1.3114 -3.38903 0.0 0.0 0.0 11.8956 -13.2956 3.00737 -17.9888 0.314154 2.73135 36.8588 3.48601 -4.57777 -17.6735 0.0 0.0 -0.0 0.0 -0.0 42.6509 14.9397 2.37579 -29.4922 -0.0631801 -4.47586 6.6968 -26.7577 1.01563 12.622 -0.0 -0.0 0.0 0.0 0.0 
3310.81 737.191 -845.832 -31.6618 60.4349 31.8687 5.23357 -0.0917255 -1.50363 5.23483 0.00412917 -1.50642 5.23357 0.185095 -1.49501 5.23046 -0.0533097 -1.50548 -17.9988 10.0831 2.44881 -18.3842 18.0717 6.22451 -0.0 0.0 -0.0 9.82696 -0.609404 19.3251 -34.4972 -35.0518 41.1319 1.06791 -27.8785 0.265064 21.6624 0.248018 -2.73962 -0.273452 1.66838 -1.1158 -0.0 0.0 -0.0 5.65552 -2.13506 -10.9814 -34.988 8.25112 -57.2577 1.01996 26.8049 -0.243041 12.9882 -0.27356 1.63304 0.537076 0.14986 -3.52709 0.0 0.0 0.0 9.50828 -14.8122 1.35515 -16.8724 0.319763 2.56015 38.0069 3.42752 -4.68328 -17.5581 0.0 0.0 -0.0 0.0 -0.0 44.7514 15.8049 1.39007 -26.7983 -0.153323 -4.07228 7.42392 -28.5416 1.13613 11.9822 -0.0 -0.0 0.0 0.0 0.0 
